PathFileType	4	(X/Y/Z)	/Users/itak/Documents/Research/Walk-IL/dataset/trc/00217_00009.trc
DataRate	CameraRate	NumFrames	NumMarkers	Units	OrigDataRate	OrigDataStartFrame	OrigNumFrames
100.000000	100.000000	4	53	mm	100.000000	187	501
Frame#	Time	RPSI			LPSI			L3			STRN			T10			C7			CLAV			RBAK			LBAK			LSHO			LUPA			LAEL			LAOL			LWTS			LWPS			LFRA			LIFD			LHPS			LHTS			RSHO			RUPA			RAEL			RAOL			RWPS			RFRA			RIFD			RHPS			RBHD			LFHD			RFHD			LBHD			LHIP			RHIP			RASI			LASI			LKNE			LTHI			LANK			LTIP			LTOE			LMT1			LMT5			LHEE			RKNE			RTHI			RANK			RTIP			RTOE			RMT1			RMT5			RHEE			RHTS			RWTS			
		X1	Y1	Z1	X2	Y2	Z2	X3	Y3	Z3	X4	Y4	Z4	X5	Y5	Z5	X6	Y6	Z6	X7	Y7	Z7	X8	Y8	Z8	X9	Y9	Z9	X10	Y10	Z10	X11	Y11	Z11	X12	Y12	Z12	X13	Y13	Z13	X14	Y14	Z14	X15	Y15	Z15	X16	Y16	Z16	X17	Y17	Z17	X18	Y18	Z18	X19	Y19	Z19	X20	Y20	Z20	X21	Y21	Z21	X22	Y22	Z22	X23	Y23	Z23	X24	Y24	Z24	X25	Y25	Z25	X26	Y26	Z26	X27	Y27	Z27	X28	Y28	Z28	X29	Y29	Z29	X30	Y30	Z30	X31	Y31	Z31	X32	Y32	Z32	X33	Y33	Z33	X34	Y34	Z34	X35	Y35	Z35	X36	Y36	Z36	X37	Y37	Z37	X38	Y38	Z38	X39	Y39	Z39	X40	Y40	Z40	X41	Y41	Z41	X42	Y42	Z42	X43	Y43	Z43	X44	Y44	Z44	X45	Y45	Z45	X46	Y46	Z46	X47	Y47	Z47	X48	Y48	Z48	X49	Y49	Z49	X50	Y50	Z50	X51	Y51	Z51	X52	Y52	Z52	X53	Y53	Z53	

188	1.87	-1367.329467773438	1013.097900390625	-67.84761047363281	-1368.878295898438	1012.350219726562	-187.8248748779297	-1364.026611328125	1105.383422851562	-134.8819274902344	-1098.619140625	1262.742797851562	-158.2489166259766	-1358.68798828125	1231.953369140625	-120.0172348022461	-1262.069580078125	1483.83251953125	-124.9240341186523	-1110.4111328125	1382.816650390625	-150.9500732421875	-1345.203857421875	1354.77001953125	-42.35895538330078	-1302.238647460938	1453.399536132812	-230.1413726806641	-1224.555541992188	1448.135375976562	-301.6448059082031	-1296.234008789062	1342.201171875	-372.7285766601562	-1350.209716796875	1140.769409179688	-400.100830078125	-1407.996215820312	1141.464111328125	-334.5219116210938	-1321.296508789062	886.3706665039062	-369.0161437988281	-1371.39794921875	884.21826171875	-437.7449645996094	-1364.302734375	1032.980102539062	-418.9873962402344	-1379.150634765625	698.6810302734375	-376.7375183105469	-1382.26611328125	794.4151000976562	-436.2225952148438	-1327.691162109375	781.0591430664062	-397.4820861816406	-1184.020751953125	1429.213012695312	31.06605911254883	-1195.258422851562	1363.783813476562	99.47955322265625	-1208.196899414062	1080.598754882812	131.2055511474609	-1268.151977539062	1078.547729492188	56.64511489868164	-1119.668090820312	851.4402465820312	110.7733612060547	-1178.187377929688	1011.619079589844	130.2058410644531	-1072.152099609375	680.1033325195312	11.23871231079102	-1079.987426757812	745.919189453125	92.06923675537109	-1223.889770507812	1624.634643554688	-92.42423248291016	-1017.195190429688	1673.37939453125	-174.4827575683594	-1023.840759277344	1671.061767578125	-74.84410095214844	-1170.4736328125	1634.201293945312	-221.8076629638672	-1256.775756835938	955.4400634765625	-323.9922485351562	-1275.2509765625	970.9249877929688	45.12433242797852	-1174.340209960938	1010.353881835938	9.337142944335938	-1163.242431640625	994.5891723632812	-268.5734558105469	-1006.782897949219	532.462890625	-263.2015075683594	-1084.984130859375	653.2318725585938	-306.2660217285156	-916.2218017578125	52.24536895751953	-236.8896179199219	-975.7208862304688	303.0317993164062	-262.8904724121094	-726.7197875976562	142.3038177490234	-186.4428558349609	-784.9159545898438	112.1885757446289	-142.3398132324219	-797.302978515625	93.34342193603516	-253.9904174804688	-978.544189453125	43.07450485229492	-186.2926788330078	-1357.73486328125	495.6585388183594	-19.89960670471191	-1257.16796875	743.2550659179688	40.75491333007812	-1547.64404296875	41.49777603149414	-85.97762298583984	-1386.04541015625	381.4052734375	-45.26612854003906	-1334.519653320312	47.18031311035156	-103.5050582885742	-1383.81982421875	47.2644157409668	-151.1698913574219	-1443.131591796875	36.32747650146484	-44.54513549804688	-1603.990966796875	53.42033004760742	-150.6974792480469	-1043.17822265625	751.846435546875	29.9990062713623	-1087.138061523438	872.6085205078125	36.02741622924805	
189	1.88	-1359.59033203125	1012.074523925781	-68.56411743164062	-1360.769775390625	1011.209045410156	-188.5460968017578	-1355.989868164062	1104.020141601562	-135.6284484863281	-1090.808837890625	1261.675903320312	-158.2019653320312	-1351.002685546875	1230.505859375	-120.7779312133789	-1254.739868164062	1482.533813476562	-125.784912109375	-1102.789916992188	1381.717529296875	-151.1377716064453	-1337.943481445312	1353.469970703125	-43.28547668457031	-1294.536499023438	1451.812255859375	-231.0935211181641	-1216.6025390625	1446.546264648438	-302.3134460449219	-1287.820068359375	1340.340209960938	-373.4453735351562	-1341.431518554688	1138.816162109375	-400.6820068359375	-1399.2568359375	1139.470092773438	-335.1312561035156	-1313.37158203125	884.2314453125	-369.8041687011719	-1363.403564453125	882.4424438476562	-438.6627807617188	-1355.705078125	1031.13134765625	-419.6409912109375	-1372.497680664062	696.9254150390625	-377.8440551757812	-1374.775024414062	792.7053833007812	-437.2675170898438	-1320.357177734375	778.9902954101562	-398.3821716308594	-1177.169067382812	1428.238647460938	30.59679222106934	-1188.517822265625	1362.818237304688	98.99847412109375	-1201.226318359375	1079.556030273438	130.6573486328125	-1260.873779296875	1077.5029296875	55.91020202636719	-1112.257568359375	850.5265502929688	110.1046142578125	-1171.088989257812	1010.633728027344	129.6527557373047	-1064.355346679688	679.4075927734375	10.42266654968262	-1072.4091796875	745.1055908203125	91.33660125732422	-1216.583984375	1623.580688476562	-93.00582885742188	-1009.908813476562	1672.252563476562	-175.1293487548828	-1016.526794433594	1669.98291015625	-75.52092742919922	-1163.207885742188	1633.074829101562	-222.3913726806641	-1248.130493164062	954.0233154296875	-324.1483764648438	-1268.086791992188	970.0118408203125	44.87345886230469	-1166.98095703125	1009.136474609375	9.367840766906738	-1154.840209960938	993.0972900390625	-268.4638366699219	-999.6632690429688	530.4185180664062	-263.4920959472656	-1077.4228515625	651.3013305664062	-306.7518920898438	-913.4570922851562	49.51396942138672	-237.6361083984375	-970.5224609375	300.7322692871094	-263.2012329101562	-723.2748413085938	137.8432006835938	-186.8752593994141	-781.6471557617188	108.1478424072266	-142.8213806152344	-794.2183837890625	89.68625640869141	-254.5754547119141	-975.774169921875	40.72311019897461	-186.9783935546875	-1353.220825195312	495.4385070800781	-19.6286506652832	-1251.2421875	742.4332275390625	40.87959289550781	-1547.299560546875	42.41901779174805	-85.69953918457031	-1382.413452148438	381.2688598632812	-44.92443466186523	-1334.496459960938	47.1246223449707	-103.4660949707031	-1383.819213867188	47.51486968994141	-150.9807281494141	-1443.16357421875	36.22993087768555	-44.44188690185547	-1603.733032226562	55.53607177734375	-150.2195892333984	-1035.524291992188	751.2006225585938	29.27182006835938	-1079.678833007812	871.8569946289062	35.43312835693359	
190	1.89	-1351.5927734375	1011.1650390625	-69.37033081054688	-1352.395385742188	1010.245239257812	-189.3497009277344	-1347.677612304688	1102.752807617188	-136.4471588134766	-1082.76220703125	1260.76025390625	-158.1561431884766	-1343.09521484375	1229.14697265625	-121.6153182983398	-1247.237670898438	1481.35009765625	-126.7216720581055	-1094.967041015625	1380.762817382812	-151.3462524414062	-1330.505004882812	1352.263793945312	-44.30514144897461	-1286.625122070312	1450.320068359375	-232.1276245117188	-1208.423828125	1445.05224609375	-303.0424194335938	-1279.131591796875	1338.542846679688	-374.2257995605469	-1332.313354492188	1136.915649414062	-401.3255004882812	-1390.175170898438	1137.5029296875	-335.8071899414062	-1304.963989257812	882.172607421875	-370.6549377441406	-1354.905151367188	880.712158203125	-439.6435546875	-1346.696166992188	1029.328857421875	-420.3550720214844	-1365.315063476562	695.2262573242188	-379.0142517089844	-1366.78857421875	791.048828125	-438.3857727050781	-1312.427734375	776.9948120117188	-399.375732421875	-1170.18603515625	1427.422119140625	30.08079147338867	-1181.65869140625	1362.015014648438	98.46851348876953	-1194.234497070312	1078.679443359375	130.0965270996094	-1253.510375976562	1076.627319335938	55.12617874145508	-1104.890502929688	849.7339477539062	109.5035247802734	-1163.98486328125	1009.792297363281	129.1165771484375	-1056.601684570312	678.8075561523438	9.738112449645996	-1064.927612304688	744.3861083984375	90.70985412597656	-1209.143920898438	1622.656494140625	-93.65338897705078	-1002.489562988281	1671.29736328125	-175.8236236572266	-1009.083312988281	1669.081176757812	-76.25482940673828	-1155.806884765625	1632.078247070312	-223.0410461425781	-1238.99951171875	952.8713989257812	-324.4533081054688	-1260.645385742188	969.0881958007812	44.51104354858398	-1159.40234375	1007.996643066406	9.359770774841309	-1146.162231445312	991.7493286132812	-268.3822631835938	-992.6683349609375	528.3359985351562	-263.7353820800781	-1069.742431640625	649.43408203125	-307.1909484863281	-911.7562866210938	46.6528205871582	-238.3259429931641	-965.8790893554688	298.324951171875	-263.4321594238281	-720.5819091796875	132.5941619873047	-187.4760284423828	-779.1605224609375	103.5328521728516	-143.3813323974609	-792.134521484375	85.49322509765625	-255.2232513427734	-974.0659790039062	38.46327209472656	-187.5252227783203	-1348.501586914062	495.308837890625	-19.39498138427734	-1245.111450195312	741.6923828125	40.95447540283203	-1546.90625	43.53203964233398	-85.36391448974609	-1378.61083984375	381.2271728515625	-44.59339141845703	-1334.447631835938	47.05528259277344	-103.4198532104492	-1383.787475585938	47.79663848876953	-150.7806091308594	-1443.157470703125	36.15416717529297	-44.35465240478516	-1603.424682617188	57.88823318481445	-149.66357421875	-1027.919555664062	750.6337280273438	28.68070793151855	-1072.188232421875	871.21044921875	34.93169403076172	
191	1.9	-1343.32470703125	1010.377136230469	-70.25354766845703	-1343.770751953125	1009.489562988281	-190.2249450683594	-1339.085815429688	1101.5947265625	-137.3294525146484	-1074.476684570312	1260.006713867188	-158.1105499267578	-1334.954345703125	1227.894653320312	-122.5251083374023	-1239.556396484375	1480.300415039062	-127.7318954467773	-1086.943603515625	1379.969360351562	-151.5753326416016	-1322.886352539062	1351.167114257812	-45.42141342163086	-1278.498901367188	1448.942993164062	-233.2396697998047	-1200.019165039062	1443.669189453125	-303.82958984375	-1270.169799804688	1336.82861328125	-375.0667419433594	-1322.862060546875	1135.088500976562	-402.0372314453125	-1380.760131835938	1135.583862304688	-336.5576171875	-1296.068725585938	880.2162475585938	-371.5752868652344	-1345.889404296875	879.0420532226562	-440.6824035644531	-1337.279663085938	1027.5888671875	-421.1334533691406	-1357.544799804688	693.5926513671875	-380.2349853515625	-1358.28076171875	789.45947265625	-439.5669555664062	-1303.923583984375	775.0812377929688	-400.4367065429688	-1163.05859375	1426.779907226562	29.52144432067871	-1174.677612304688	1361.38720703125	97.89630126953125	-1187.225341796875	1077.98779296875	129.5340881347656	-1246.07666015625	1075.937866210938	54.30879592895508	-1097.573120117188	849.0777587890625	108.9763031005859	-1156.877563476562	1009.104309082031	128.6048431396484	-1048.910766601562	678.3129272460938	9.191844940185547	-1057.537353515625	743.7681884765625	90.18990325927734	-1201.570434570312	1621.876831054688	-94.37010192871094	-994.9380493164062	1670.534912109375	-176.5677795410156	-1001.512084960938	1668.376586914062	-77.04100799560547	-1148.261352539062	1631.230590820312	-223.7609558105469	-1229.527465820312	951.974853515625	-324.8624877929688	-1252.90673828125	968.1655883789062	44.04621124267578	-1151.575561523438	1006.942504882812	9.305825233459473	-1137.215454101562	990.5741577148438	-268.3396911621094	-985.8447875976562	526.2452392578125	-263.9243774414062	-1061.9970703125	647.6514282226562	-307.5852966308594	-910.9044799804688	43.81364440917969	-238.908447265625	-961.7108764648438	295.882080078125	-263.5490112304688	-718.3915405273438	126.6314697265625	-188.3225708007812	-777.1874389648438	98.43936920166016	-144.0579986572266	-790.8585815429688	80.86824798583984	-255.9509887695312	-973.1736450195312	36.46575546264648	-187.8427276611328	-1343.5234375	495.2738952636719	-19.22076416015625	-1238.731201171875	741.0343627929688	40.96203994750977	-1546.4755859375	44.86962890625	-84.96479034423828	-1374.609008789062	381.283447265625	-44.29187774658203	-1334.367065429688	46.96903228759766	-103.3679122924805	-1383.716430664062	48.10470581054688	-150.5728912353516	-1443.096801757812	36.10776138305664	-44.2773323059082	-1603.05810546875	60.50651550292969	-149.0210418701172	-1020.359069824219	750.153564453125	28.23767280578613	-1064.686401367188	870.6765747070312	34.52168655395508	
